<svg id="Layer_1" data-name="Layer 1" xmlns="http://www.w3.org/2000/svg" viewBox="0 0 1024 1024"><defs><style>.cls-1{fill:#ffd500;}.cls-2{fill:#fff;}.cls-3{fill:#37a8e0;}.cls-4{fill:#00a09a;}.cls-5{fill:#ffe533;}.cls-6{fill:#e30514;}.cls-7{fill:#ececec;}.cls-8{fill:#cf0218;}.cls-9{fill:#009384;}.cls-10{fill:#00c6b7;}.cls-11{fill:#ffbc00;}</style></defs><path class="cls-1" d="M868.72,500.94l.14,121.31c0,17.16-15.17,31.09-33.92,31.11l-708.78.84c-18.75,0-34-13.87-34-31l-.24-195c0-17.16,15.17-31.09,33.93-31.11l143.59-.17a35.35,35.35,0,0,1,26.1,11.14q23.4,25.64,46.81,51.25a35.29,35.29,0,0,0,26.1,11.15l466.26-.55C853.48,469.89,868.7,483.78,868.72,500.94Z"/><path class="cls-2" d="M764.05,679.93,339.84,861.2,115.29,335.72,539.5,154.45,753,654.06Z"/><rect class="cls-3" x="211.6" y="250.76" width="412.87" height="412.87" transform="translate(-146.02 201.03) rotate(-23.14)"/><path class="cls-2" d="M727.37,719.1,309.51,523.63,551.63,6,969.49,201.48,739.29,693.61Z"/><rect class="cls-4" x="456.4" y="106.24" width="412.87" height="412.87" transform="translate(194.93 -251.39) rotate(25.07)"/><path class="cls-5" d="M772.16,1007.78l-582.38.69c-29.1,0-53.89-17-58.43-40.12L55.24,580.66c-5.66-28.84,22-54.95,58.33-55l733.66-.86c36.3,0,64,26,58.45,54.86L830.5,967.53C826,990.67,801.26,1007.74,772.16,1007.78Z"/><path class="cls-2" d="M789.94,761.13a23.54,23.54,0,0,1-23.16,23.92l-161.88,2.6-.76-47.07L766,738A23.54,23.54,0,0,1,789.94,761.13Z"/><path class="cls-6" d="M604.14,740.58l.76,47.07-403.78,6.51a23.54,23.54,0,0,1-.76-47.08Z"/><path class="cls-7" d="M789.94,761.13a23.56,23.56,0,0,1-23.16,23.92l-161.89,2.6-.28-17.49,161.88-2.61A23.47,23.47,0,0,0,783,760.39a24.08,24.08,0,0,0,5.09-8A23.44,23.44,0,0,1,789.94,761.13Z"/><path class="cls-8" d="M604.61,770.16l.28,17.49-403.77,6.51A23.54,23.54,0,0,1,177.2,771a23.11,23.11,0,0,1,1.55-8.78,23.52,23.52,0,0,0,22.09,14.44Z"/><path class="cls-9" d="M388.37,412.2l548.92-199-374-174.94q-87.46,187-174.94,374"/><path class="cls-1" d="M906,589.17Q868.4,783.09,830.82,977c-4.5,23.13-29.24,40.21-58.35,40.25L190.1,1018c-29.11,0-53.89-17-58.44-40.12Q93.62,784,55.56,590.17a38.79,38.79,0,0,1,4-26.07Q95.2,745.68,130.85,927.27c4.54,23.13,29.33,40.15,58.43,40.12l582.38-.7c29.1,0,53.85-17.1,58.34-40.24q35.4-182.69,70.81-365.34A39.12,39.12,0,0,1,906,589.17Z"/><path class="cls-10" d="M574,101.36a6,6,0,0,1,.39-3.91h0A10.73,10.73,0,0,1,579,92.83h0a16.51,16.51,0,0,1,6.31-2h0a7.66,7.66,0,0,1,3.7.46h0c.2.1.4.21.59.33h0A6.5,6.5,0,0,1,592.38,95h0c.08.24.14.47.2.71h0c.59-1,1.33-2.32,2.08-3.65h0c1.79-3.14,3.74-6.64,4.23-7.75h0a1,1,0,0,0,.09-.2h0a8.49,8.49,0,0,1,.54-2h0a2.42,2.42,0,0,1,.75-1h0a1.49,1.49,0,0,1,1.47-.12h0l0,0h0a3,3,0,0,1,1.5,4h0a3.33,3.33,0,0,1-.57.85h0l0,0h0l-.07.1h0l-.26.37h0c-.21.32-.48.77-.81,1.3h0c-.65,1.08-1.49,2.51-2.39,4.1h0c-1.66,2.91-3.52,6.32-4.81,8.91h0a3.32,3.32,0,0,1,.7.83h0a1.76,1.76,0,0,1,.22,1.21h0a3.4,3.4,0,0,1-.23.82h0a1.88,1.88,0,0,1-.85.93h0a2.13,2.13,0,0,1-1,.23h0c-.4,0-.78,0-1.16-.08h0a15.57,15.57,0,0,1-.66,1.9h0a5.63,5.63,0,0,1-.56,1h0a2,2,0,0,1-1,.75h0a1.41,1.41,0,0,1-1-.06h0l-.18-.09h0a3.15,3.15,0,0,1-1.15-1.11h0a2.31,2.31,0,0,1-.28-1.32h0a4.18,4.18,0,0,1,.09-.53h0c-.75.11-1.74.23-2.85.29h0a16.87,16.87,0,0,1-7.49-.9h0l0,0h0a4.74,4.74,0,0,1-2.83-3.2Zm8.25-5.74c-2,.93-3.82,2.46-4.29,3.59h0a1.29,1.29,0,0,0-.12,1h0a1.55,1.55,0,0,0,.9.88h0a10.23,10.23,0,0,0,4.41.37h0c1.67-.11,3.52-.38,5.27-.6h0c.07-.31.16-.73.23-1.2h0a8.81,8.81,0,0,0,0-3.28h0a2.19,2.19,0,0,0-.8-1.36h0a2.14,2.14,0,0,0-.3-.17h0l-.06,0h0c-1.08-.49-3.25-.16-5.22.79Zm14.68,13.45a16.92,16.92,0,0,1,.2-5.78h0A44.31,44.31,0,0,1,599.59,95h0c0-.1.08-.21.13-.31h0a2.4,2.4,0,0,1,1-1.17h0a1.62,1.62,0,0,1,1.44,0h0a1.35,1.35,0,0,1,.29.16h0a2.3,2.3,0,0,1,1.1,1.73h0a2.8,2.8,0,0,1-.25,1.31h0v0h0c-.16.32-.3.64-.44,1h0a36,36,0,0,0-2.27,6.36h0a8.78,8.78,0,0,0-.24,4h0c.15.52.34.72.58.83h0a1.3,1.3,0,0,0,.59.09h0a4.25,4.25,0,0,0,2.48-1.12h0a13.16,13.16,0,0,0,2.3-2.63h0a32.26,32.26,0,0,0,2.5-4.59h0l.06-.13h0a2.59,2.59,0,0,1,.85-1.13h0a2,2,0,0,1,2-.1h0l.12.06h0a1.8,1.8,0,0,1,.91,1h0a2.19,2.19,0,0,1,.16,1h0a3.45,3.45,0,0,1-.21,1.09h0l0,.08,0,.08c-.26.42-1.24,2.29-2.6,4.32h0a21.77,21.77,0,0,1-5.07,5.68h0a5.2,5.2,0,0,1-4.41,1h0a4.42,4.42,0,0,1-.67-.25h0a5.37,5.37,0,0,1-2.9-4.22Zm13.76,10.53-.3-.16h0l0,0a2.31,2.31,0,0,1-1.08-1.51h0a2.07,2.07,0,0,1,0-.94h0l-.18-.15h0a2,2,0,0,1-.73-1.34h0v-.1a1,1,0,0,1,0-.26h0l0-.12h0l.1-.26h0c.08-.21.19-.48.33-.82h0c.28-.68.67-1.6,1.14-2.64h0a75.88,75.88,0,0,1,3.58-7.08h0a2.58,2.58,0,0,1,0-1.51h0v0a.88.88,0,0,1,.05-.15h0a2,2,0,0,1,1.09-1h0a3.14,3.14,0,0,1,.86-.24h0c.08-.09.16-.2.26-.33h0c.3-.41.73-1,1.2-1.67h0a30,30,0,0,0,2.75-4.64h0l.11-.24h0a3.9,3.9,0,0,0,.15-.74h0a5.1,5.1,0,0,1,.35-1.29h0a1.89,1.89,0,0,1,.89-1h0a2,2,0,0,1,1.52,0h0l.17.07h0a1.71,1.71,0,0,1,.85.89h0a3.09,3.09,0,0,1,.28,1.15h0a6.1,6.1,0,0,1-.53,2.8h0c0,.09-.07.17-.11.26h0a15.41,15.41,0,0,1-1.76,2.91h0c-.56.76-1.2,1.59-2,2.8h0a16.94,16.94,0,0,1,4,2.57h0a7.75,7.75,0,0,1,2.89,5.66h0a3.25,3.25,0,0,1-.3,1.45h0a6.89,6.89,0,0,1-2.47,2.64h0a22,22,0,0,1-3.66,2h0a61.65,61.65,0,0,1-6.67,2.36h0l-.69.23h0a2.71,2.71,0,0,0-.54.27h0a1.87,1.87,0,0,1-.8.32h0a1.51,1.51,0,0,1-.77-.12h0Zm3.95-9.06a42.56,42.56,0,0,0-1.73,4.46h0c.49-.12,1.08-.27,1.73-.46h0a27.33,27.33,0,0,0,5.71-2.24h0a4.85,4.85,0,0,0,2.08-1.86h0a1,1,0,0,0,.11-.51h0a3.33,3.33,0,0,0-1.28-2h0a12,12,0,0,0-3.08-2h0l-.71-.3h0l-.6.89h0a33,33,0,0,0-1.87,3.22h0c-.13.26-.25.52-.36.77Zm8.91,16a2.64,2.64,0,0,1-1.12-1.06h0v0h0a1.61,1.61,0,0,1-.17-1.15h0a6.58,6.58,0,0,1,.29-1.14h0c.28-.84.71-1.9,1.25-3.1h0c2.11-4.69,5.88-11.68,8.09-15.74h0c1.12-2.06,2-3.83,2.78-5.2h0a18,18,0,0,1,1.8-2.9h0a1.56,1.56,0,0,1,.65-.47h0a2.21,2.21,0,0,1,1.58,0h0A2.61,2.61,0,0,1,640,97.4h0a2.07,2.07,0,0,1,.1.94h0a3.55,3.55,0,0,1-.3,1h0a38.53,38.53,0,0,1-2.06,3.54h0c-1.08,1.76-2.61,4.26-4.73,7.94h0c-1.66,2.87-3.19,5.88-4.4,8.54h0c-.77,1.73-1.41,3.31-1.85,4.62h0v0c-.07.17-.15.39-.26.62h0a6.32,6.32,0,0,1-.61,1.09h0a2.44,2.44,0,0,1-1.13.94h0a1.64,1.64,0,0,1-1.19,0h0s0,0,0,0Zm7.16.15.69-.58-.7.58a6,6,0,0,1-1.17-3.36h0a9,9,0,0,1,.77-4.34h0a8.91,8.91,0,0,1,2.06-2.86h0a19.92,19.92,0,0,1,5.64-4h0a6.21,6.21,0,0,1,4.44-.36h0a2.26,2.26,0,0,1,.33.13h0a6.16,6.16,0,0,1,2.81,2.83h0a8.1,8.1,0,0,1,.45,5.82h0a10.11,10.11,0,0,1-.58,1.63h0a10.44,10.44,0,0,1-6.29,5.58h0a9.91,9.91,0,0,1-6.95,0h0a4.12,4.12,0,0,1-1.5-1.1Zm10.64-10.83-.31,0h0a4.37,4.37,0,0,0-1.34.19h0a11.09,11.09,0,0,0-5.07,3.55h0a4.17,4.17,0,0,0-.64,1h0a5.19,5.19,0,0,0-.48,2.12h0a1.92,1.92,0,0,0,.49,1.45h0a1,1,0,0,0,.29.19h0a4.73,4.73,0,0,0,2.73,0h0a7.08,7.08,0,0,0,2.61-1.2h0a8.69,8.69,0,0,0,2.47-3h0a5,5,0,0,0,.44-2.22h0a3,3,0,0,0-.2-1.32h0a1.75,1.75,0,0,0-.53-.62h0l-.42-.12h-.06Zm-.13-.29.35-.6-.35.6Zm-78-28.76A14.83,14.83,0,0,1,567,85.09a17.43,17.43,0,0,1,8.1-.1l1.12.64a5.44,5.44,0,0,1,2,2.41c.41,1,.15,2-.76,3.27a5.56,5.56,0,0,1-4,2.14,12.59,12.59,0,0,1-5.17-.43c-1.71-.5-2.73-.61-3.05-.35s-.31.78,0,1.54,1.48,1.84,3.45,3.23a19.86,19.86,0,0,0,5.21,2.8,21.72,21.72,0,0,0,3.81.91c1.05.12,1.59,1.53,2.13,1.69s.76.63.67,1.41c-1.56.66-2.76-.3-4.08-.36a21.35,21.35,0,0,1-4.61-.81,26.29,26.29,0,0,1-5.88-2.56l-1.28-.81a17.91,17.91,0,0,1-4.08-3.85,6.4,6.4,0,0,1-1-2.58,6.08,6.08,0,0,1,.57-3A10.92,10.92,0,0,1,563.25,86.84Zm3.13,2.89a14.22,14.22,0,0,0,5,.62c1-.17,1.61-.52,1.81-1s-.34-.86-1.64-1a6.51,6.51,0,0,0-3,.29A20.47,20.47,0,0,0,566.38,89.73Z"/><path class="cls-10" d="M627.9,142.32a18.3,18.3,0,0,1-6.53-7.88h0a1.51,1.51,0,0,1,0-1.18h0a2.53,2.53,0,0,1,.12-.23h0a2.12,2.12,0,0,1,1-.8h0a2.19,2.19,0,0,1,1.34,0h0l.23.08h0a1.73,1.73,0,0,1,.87.93h0a11.16,11.16,0,0,0,1.63,2.58h0a20.36,20.36,0,0,0,2.19,2.32h0a20.59,20.59,0,0,0,3.86,2.7h0c.45.25.91.47,1.38.68h0a17.11,17.11,0,0,0,3,1h0a18.36,18.36,0,0,0,4.14.53h0a9,9,0,0,0,5.61-2.47h0a24.33,24.33,0,0,0,4.25-6.42h0a13.07,13.07,0,0,1-1.18.6h0a8.87,8.87,0,0,1-2.18.67h0a6.41,6.41,0,0,1-2.81-.12h0a3,3,0,0,1-.45-.15h0a2.69,2.69,0,0,1-1-.75h0a4.12,4.12,0,0,1-.8-1.35h0a6.28,6.28,0,0,1,.14-4.47h0l.17-.42h0a10.64,10.64,0,0,1,2.56-3.54h0a26.3,26.3,0,0,1,3.84-3h0c.33-.22.9-.54,1.75-1h0a18.08,18.08,0,0,1,2.84-1.16h0a12,12,0,0,1,3.15-.58h0a4.25,4.25,0,0,1,1.91.33h0a3.94,3.94,0,0,1,.87.54h0a1.57,1.57,0,0,1,.4.48h0a.67.67,0,0,1,0,.57h0l0,.1h0a1.83,1.83,0,0,1-.8.62h0l.13.06h0a3.64,3.64,0,0,1,.54.3h0a1.83,1.83,0,0,1,.91,2.34h0l-.07.15h0q-1.78,3.39-3.58,6.78h0c-1.19,2.27-2.5,4.47-3.82,6.66h0a28.58,28.58,0,0,1-3.86,5.28h0a12.52,12.52,0,0,1-2.32,1.93h0a11.6,11.6,0,0,1-4.64,1.59h0a17.46,17.46,0,0,1-5.1-.12h0a21.88,21.88,0,0,1-5.12-1.55h0a26.21,26.21,0,0,1-4.56-2.6Zm28.82-20a8.55,8.55,0,0,0-1.12.46h0l-1.24.61h0a12.17,12.17,0,0,0-2.19,1.35h0l-2,1.59h0a11.58,11.58,0,0,0-3.27,3.74h0v0h0a4.7,4.7,0,0,0-.4,1.29h0c0,.29,0,.42.07.48h.08l.29-.08h0a7,7,0,0,0,1-.52h0a24.18,24.18,0,0,0,3.48-2.69h0a33.72,33.72,0,0,0,3.06-3.16h0q1.4-1.65,2.81-3.28h0l-.61.18Z"/><path class="cls-10" d="M657.76,140.77a9.2,9.2,0,0,1-1.61-3.84h0a1.41,1.41,0,0,1,.08-.84h0a1.67,1.67,0,0,1,.33-.47h0a2.56,2.56,0,0,1,1.2-.67h0a2.44,2.44,0,0,1,1.34,0h0l.14.06h0a1.26,1.26,0,0,1,.75,1h0a6.71,6.71,0,0,0,1,2.31h0a1.42,1.42,0,0,0,.6.56h0a1.23,1.23,0,0,0,1-.06h0l.06-.06h0l.15-.15h0a2.3,2.3,0,0,0,.5-.77h0l0,0h0a4.17,4.17,0,0,0,.28-1.41h0a4.77,4.77,0,0,0-.54-2.1h0a12.47,12.47,0,0,0-.71-1.28h0a5.64,5.64,0,0,1-.63-1.45h0a4.33,4.33,0,0,1,.21-3h0a5.72,5.72,0,0,1,.44-.8h0a5.85,5.85,0,0,1,3.69-2.55h0a10.15,10.15,0,0,1,4.44-.13h0a1.49,1.49,0,0,1,.3.09h0a1.18,1.18,0,0,1,.66.74h0a1.35,1.35,0,0,1,0,1h0a1.23,1.23,0,0,1-.14.25h0a2.39,2.39,0,0,1-2.11,1h0a7.18,7.18,0,0,0-1.3.15h0a5.12,5.12,0,0,0-1.38.48h0a2.16,2.16,0,0,0-.87.82h0l0,.08h0a1.18,1.18,0,0,0,.11,1h0a14.62,14.62,0,0,0,.77,1.47h0a6.71,6.71,0,0,1,.69,1.63h0a14,14,0,0,1,.43,2.29h0a5.56,5.56,0,0,1-.24,2.37h0a5.59,5.59,0,0,1-.26.72h0a6.92,6.92,0,0,1-1.91,2.52h0a4.81,4.81,0,0,1-3.74,1.07h0a5.34,5.34,0,0,1-1.64-.42h0a4.76,4.76,0,0,1-2-1.67Zm5-1.78.1-.22-.1.22Zm-.06-.13,0-.1,0,.1Z"/><path class="cls-10" d="M665,115.11a1.3,1.3,0,0,1,1.46-.2,1,1,0,0,1,.37,1.3,1.94,1.94,0,0,1-.7.65l-2.55,1.64a1.31,1.31,0,0,1-1.45.2,1,1,0,0,1-.37-1.31,1.88,1.88,0,0,1,.69-.64Z"/><path class="cls-10" d="M659.88,112.32c.19-.5.41-1,1-1a1,1,0,0,1,1.08.81,2,2,0,0,1-.17.94l-1.05,2.84c-.19.49-.41,1-1,1a1,1,0,0,1-1.08-.81,2,2,0,0,1,.16-.94Z"/><path class="cls-10" d="M654.77,111.82c0-.53,0-1,.56-1.36a1,1,0,0,1,1.31.32,2,2,0,0,1,.21.93l.14,3a1.33,1.33,0,0,1-.56,1.36,1,1,0,0,1-1.31-.33,1.92,1.92,0,0,1-.21-.92Z"/><path class="cls-10" d="M653.07,115.34a1.28,1.28,0,0,1,.26,1.44,1,1,0,0,1-1.28.44,1.92,1.92,0,0,1-.67-.67l-1.74-2.47a1.29,1.29,0,0,1-.26-1.45,1,1,0,0,1,1.28-.43,1.87,1.87,0,0,1,.67.66Z"/><path class="cls-10" d="M667.33,119.76a1.3,1.3,0,0,1,1.41.41,1,1,0,0,1-.19,1.34,1.92,1.92,0,0,1-.89.31l-3,.47a1.28,1.28,0,0,1-1.4-.41,1,1,0,0,1,.18-1.34,2,2,0,0,1,.9-.32Z"/><path class="cls-11" d="M508.21,921.51c-3,.48-7.67,3.37-10.36,4.65-2.37,1.14-5.74,2.74-9.21,1.65-1.52-.47-4-1.85-4.17-3.73s2.12-3.65,6.66-7.35c1-.8,1.31-1,1.84-1.44,2.41-1.93,8.49-6.81,8.42-13.12,0-3.42-1.85-7.61-5.45-9.38a10.46,10.46,0,0,0-7.09-.55c-.73.17-2.69.7-6,3.31a30.59,30.59,0,0,0-8.55,10.07,23.87,23.87,0,0,0-3.24,10.79,21.45,21.45,0,0,0,1.88,9.73,18.36,18.36,0,0,0,5.79,7.36,18.68,18.68,0,0,0,7,3.09,23.86,23.86,0,0,0,8.88.37c6.77-1,11-4.5,13.75-6.8,3.8-3.17,3.89-4.7,3.79-5.44a4.1,4.1,0,0,0-2.67-3.16A3,3,0,0,0,508.21,921.51Zm-28-5.48c-1.49-1.06.52-7.77,4.8-11.49,1.33-1.16,4-3.13,5.18-2.33s-.1,4.78-.21,5.07a12.25,12.25,0,0,1-3,4.45C485.72,913.07,481.56,917,480.23,916Z"/><rect class="cls-11" x="474.29" y="870.86" width="6.25" height="18.17" rx="3.07" transform="translate(-318.58 272.8) rotate(-24.18)"/><rect class="cls-11" x="488.29" y="867.86" width="6.25" height="18.17" rx="3.07" transform="translate(91.4 -45.29) rotate(5.82)"/><rect class="cls-11" x="463.43" y="879.02" width="6.25" height="18.17" rx="3.07" transform="translate(1459.73 1029.49) rotate(125.82)"/><rect class="cls-11" x="458.45" y="891.5" width="6.25" height="18.17" rx="3.07" transform="translate(1416.86 566.6) rotate(97.87)"/><rect class="cls-11" x="500.92" y="872.43" width="6.25" height="18.17" rx="3.07" transform="translate(574.99 -131.45) rotate(33.77)"/></svg>